<svg width="8" height="12" viewBox="0 0 8 12" fill="none" xmlns="http://www.w3.org/2000/svg">
<path d="M7.48779 6.00684C7.48779 6.15072 7.46012 6.28353 7.40479 6.40527C7.34945 6.52702 7.26367 6.646 7.14746 6.76221L2.17529 11.6846C1.99268 11.8672 1.77132 11.9585 1.51123 11.9585C1.24007 11.9585 1.01042 11.8672 0.822266 11.6846C0.634115 11.4964 0.540039 11.2695 0.540039 11.0039C0.540039 10.7383 0.642415 10.5031 0.847168 10.2983L5.20508 6.00684L0.847168 1.71533C0.642415 1.51058 0.540039 1.27539 0.540039 1.00977C0.540039 0.744141 0.634115 0.52002 0.822266 0.337402C1.01042 0.149251 1.24007 0.0551758 1.51123 0.0551758C1.77132 0.0551758 1.99268 0.146484 2.17529 0.329102L7.14746 5.25146C7.37435 5.46729 7.48779 5.71908 7.48779 6.00684Z" fill="#3C3C43" fill-opacity="0.3"/>
</svg>
