<svg width="26" height="16" viewBox="0 0 26 16" fill="none" xmlns="http://www.w3.org/2000/svg">
<path d="M25.5 5.80859V7.91797L13 15.7305L0.5 7.92188V5.8125L13 13.625L25.5 5.80859ZM17.9023 8.62109L19.7422 7.47266C18.2891 5.29297 15.8086 3.85547 12.9961 3.85547C10.1836 3.85547 7.70312 5.28906 6.25391 7.46484H6.26562C6.36328 7.375 6.46484 7.28906 6.56641 7.20312C10.0703 4.29688 15.1367 4.93359 17.9023 8.62109ZM9.30469 9.35547C9.96484 8.89062 10.7305 8.625 11.5469 8.625C12.8906 8.625 14.0938 9.34375 14.9219 10.4844L16.6953 9.375C15.8789 8.20703 14.5234 7.44141 12.9922 7.44141C11.4727 7.44141 10.125 8.19922 9.30469 9.35547ZM4.54688 4.29297C9.69531 0.21875 16.9766 1.30859 20.8555 6.71875L20.8828 6.75781L22.7891 5.57031C20.6992 2.37891 17.0938 0.269531 12.9961 0.269531C8.95312 0.269531 5.31641 2.35938 3.21094 5.56641C3.59766 5.15625 4.09766 4.64844 4.54688 4.29297Z" fill="black"/>
</svg>
