<svg width="75" height="56" viewBox="0 0 75 56" fill="none" xmlns="http://www.w3.org/2000/svg">
<path d="M65.625 0H9.375C6.8886 0 4.50403 0.98333 2.74587 2.73367C0.987721 4.48401 0 6.85798 0 9.33333L0 46.6667C0 49.142 0.987721 51.516 2.74587 53.2663C4.50403 55.0167 6.8886 56 9.375 56H65.625C68.1114 56 70.496 55.0167 72.2541 53.2663C74.0123 51.516 75 49.142 75 46.6667V9.33333C75 6.85798 74.0123 4.48401 72.2541 2.73367C70.496 0.98333 68.1114 0 65.625 0ZM23.4375 44.3333H11.7188C11.0971 44.3333 10.501 44.0875 10.0615 43.6499C9.62193 43.2123 9.375 42.6188 9.375 42V39.6667C9.375 39.0478 9.62193 38.4543 10.0615 38.0167C10.501 37.5792 11.0971 37.3333 11.7188 37.3333H23.4375V44.3333ZM42.1875 42C42.1875 42.6188 41.9406 43.2123 41.501 43.6499C41.0615 44.0875 40.4654 44.3333 39.8438 44.3333H28.125V37.3333H39.8438C40.4654 37.3333 41.0615 37.5792 41.501 38.0167C41.9406 38.4543 42.1875 39.0478 42.1875 39.6667V42ZM65.625 23.3333C65.625 24.571 65.1311 25.758 64.2521 26.6332C63.373 27.5083 62.1807 28 60.9375 28H14.0625C12.8193 28 11.627 27.5083 10.7479 26.6332C9.86886 25.758 9.375 24.571 9.375 23.3333V14C9.375 12.7623 9.86886 11.5753 10.7479 10.7002C11.627 9.825 12.8193 9.33333 14.0625 9.33333H60.9375C62.1807 9.33333 63.373 9.825 64.2521 10.7002C65.1311 11.5753 65.625 12.7623 65.625 14V23.3333Z" fill="black"/>
</svg>
