<svg width="19" height="26" viewBox="0 0 19 26" fill="none" xmlns="http://www.w3.org/2000/svg">
<path d="M12.9746 8.85449L10.8799 10.9492L10.8652 6.75L12.9746 8.85449ZM10.8652 19.5869L12.9697 17.4824L10.875 15.3877L10.8652 19.5869ZM19 13.166C19 23.2051 15.4893 25.5 9.96191 25.5C4.43457 25.5 0.25 23.2051 0.25 13.166C0.25 3.12695 4.32227 0.5 9.84961 0.5C15.377 0.5 19 3.13184 19 13.166ZM11.2607 13.166L15.1377 8.83984L9.0293 2.28223V10.9199L5.42578 7.31641L4.10742 8.62988L8.63379 13.1709L4.10742 17.7119L5.4209 19.0254L9.02441 15.4219L9.13672 23.7227L15.3574 17.4971L11.2607 13.166Z" fill="#0088FF"/>
</svg>
