<svg width="24" height="26" viewBox="0 0 24 26" fill="none" xmlns="http://www.w3.org/2000/svg">
<path d="M23.2962 15.9102L21.2161 14.709C21.4261 13.5762 21.4261 12.4141 21.2161 11.2812L23.2962 10.0801C23.5355 9.94336 23.6429 9.66016 23.5648 9.39648C23.0228 7.6582 22.0999 6.08594 20.8939 4.77734C20.7083 4.57715 20.4056 4.52832 20.1712 4.66504L18.0911 5.86621C17.2171 5.11426 16.2112 4.5332 15.1224 4.15234V1.75488C15.1224 1.48145 14.9319 1.24219 14.6634 1.18359C12.8714 0.783203 11.0355 0.802734 9.33135 1.18359C9.0628 1.24219 8.87237 1.48145 8.87237 1.75488V4.15723C7.78838 4.54297 6.78253 5.12402 5.90362 5.87109L3.82842 4.66992C3.58917 4.5332 3.29131 4.57715 3.10577 4.78223C1.89971 6.08594 0.976861 7.6582 0.434869 9.40137C0.351861 9.66504 0.464166 9.94824 0.703424 10.085L2.7835 11.2861C2.57354 12.4189 2.57354 13.5811 2.7835 14.7139L0.703424 15.915C0.464166 16.0518 0.356744 16.335 0.434869 16.5986C0.976861 18.3369 1.89971 19.9092 3.10577 21.2178C3.29131 21.418 3.59405 21.4668 3.82842 21.3301L5.9085 20.1289C6.78253 20.8809 7.78839 21.4619 8.87725 21.8428V24.2451C8.87725 24.5186 9.06768 24.7578 9.33624 24.8164C11.1282 25.2168 12.9642 25.1973 14.6683 24.8164C14.9368 24.7578 15.1273 24.5186 15.1273 24.2451V21.8428C16.2112 21.457 17.2171 20.876 18.096 20.1289L20.1761 21.3301C20.4153 21.4668 20.7132 21.4229 20.8987 21.2178C22.1048 19.9141 23.0276 18.3418 23.5696 16.5986C23.6429 16.3301 23.5355 16.0469 23.2962 15.9102ZM11.9974 16.9014C9.84405 16.9014 8.09112 15.1484 8.09112 12.9951C8.09112 10.8418 9.84405 9.08887 11.9974 9.08887C14.1507 9.08887 15.9036 10.8418 15.9036 12.9951C15.9036 15.1484 14.1507 16.9014 11.9974 16.9014Z" fill="black"/>
</svg>
