<svg width="37" height="75" viewBox="0 0 37 75" fill="none" xmlns="http://www.w3.org/2000/svg">
<path d="M27.75 56.25C27.75 61.4276 23.6086 65.625 18.5 65.625C13.3914 65.625 9.24997 61.4276 9.24997 56.25C9.24997 52.7805 11.111 49.7536 13.875 48.1323V32.8125C13.875 30.2237 15.9457 28.125 18.5 28.125C21.0543 28.125 23.125 30.2237 23.125 32.8125V48.1323C25.889 49.7536 27.75 52.7805 27.75 56.25ZM32.375 43.8497C35.2529 47.1548 37 51.4953 37 56.25C37 66.6059 28.7179 75 18.5 75C18.4568 75 18.412 74.9999 18.3686 74.9996C8.20775 74.9281 -0.0516436 66.4506 0.00024314 56.1523C0.0239463 51.4358 1.76685 47.1321 4.62496 43.8497V14.0625C4.62496 6.29604 10.8371 0 18.5 0C26.1629 0 32.375 6.29604 32.375 14.0625V43.8497ZM30.0625 56.25C30.0625 51.2199 27.2629 48.605 25.4375 46.5085V14.0625C25.4375 10.1855 22.3253 7.03125 18.5 7.03125C14.6747 7.03125 11.5625 10.1855 11.5625 14.0625V46.5085C9.72229 48.622 6.96276 51.2106 6.93761 56.1882C6.90523 62.6153 12.0776 67.9239 18.4167 67.9685L18.5 67.9688C24.8755 67.9688 30.0625 62.7117 30.0625 56.25Z" fill="black"/>
</svg>
